<svg xmlns="http://www.w3.org/2000/svg" width="1800" height="2400" viewBox="0 0 1800 2400">
  <defs>
    <linearGradient id="bgGrad" x1="0" y1="0" x2="0" y2="1">
      <stop offset="0" stop-color="#f7fbff"/>
      <stop offset="1" stop-color="#ffffff"/>
    </linearGradient>
    <linearGradient id="heroGrad" x1="0" y1="0" x2="1" y2="1">
      <stop offset="0" stop-color="#102f49"/>
      <stop offset="1" stop-color="#164361"/>
    </linearGradient>
    <linearGradient id="headGrad" x1="0" y1="0" x2="0" y2="1">
      <stop offset="0" stop-color="#f3f9ff"/>
      <stop offset="1" stop-color="#eaf5ff"/>
    </linearGradient>
    <filter id="shadow" x="-20%" y="-20%" width="140%" height="160%">
      <feDropShadow dx="0" dy="8" stdDeviation="10" flood-color="#294860" flood-opacity="0.10"/>
    </filter>
    <style>
      .title { font: 900 48px 'Pretendard', 'Noto Sans KR', Arial, sans-serif; fill: white; }
      .subtitle { font: 600 22px 'Pretendard', 'Noto Sans KR', Arial, sans-serif; fill: #dbe8f2; }
      .brand { fill: #03c75a; }
      .card-title { font: 800 18px 'Pretendard', 'Noto Sans KR', Arial, sans-serif; fill: #102030; }
      .body { font: 500 13px 'Pretendard', 'Noto Sans KR', Arial, sans-serif; fill: #233546; }
      .note { font: 700 12px 'Pretendard', 'Noto Sans KR', Arial, sans-serif; fill: #24435e; }
      .small { font: 700 11px 'Pretendard', 'Noto Sans KR', Arial, sans-serif; fill: #355; }
      .label { font: 700 11px 'Pretendard', 'Noto Sans KR', Arial, sans-serif; fill: #334; }
      .summaryTitle { font: 900 24px 'Pretendard', 'Noto Sans KR', Arial, sans-serif; fill: #fff; }
      .summaryBody { font: 900 23px 'Pretendard', 'Noto Sans KR', Arial, sans-serif; fill: #0f2f1f; }
      .mono { font: 600 12px 'Consolas', 'Monaco', monospace; fill: #233546; }
    </style>
  </defs>

  <rect width="100%" height="100%" fill="url(#bgGrad)"/>


  <g filter="url(#shadow)">
    <rect x="36" y="36" width="1728" height="130" rx="20" fill="url(#heroGrad)"/>
  </g>
  <text x="900.0" y="90" text-anchor="middle" class="title">
    www.<tspan class="brand">naver.com</tspan>에 접속할 때 일어나는 과정
  </text>
  <text x="900.0" y="126" text-anchor="middle" class="subtitle">
    (브라우저에 URL을 입력하고, 화면이 표시되기까지의 전체 흐름)
  </text>


    <g filter="url(#shadow)">
      <rect x="36.0" y="190" width="418.5" height="500" rx="16" fill="#ffffff" stroke="#b8d7f6" stroke-width="2"/>
      <rect x="36.0" y="190" width="418.5" height="58" rx="16" fill="url(#headGrad)"/>
      <rect x="36.0" y="234" width="418.5" height="14" fill="url(#headGrad)"/>
      <circle cx="64.0" cy="219" r="18" fill="#1769d2"/>
      <text x="64.0" y="225" text-anchor="middle" style="font:900 18px Pretendard, Arial; fill:#fff">1</text>
      <text x="92.0" y="226" class="card-title">URL 입력</text>
    </g>
    
<text x="52.0" y="272" class="body">사용자가 브라우저 주소창에</text>
<text x="52.0" y="290" class="body">www.naver.com을 입력하고 엔터를</text>
<text x="52.0" y="308" class="body">누릅니다.</text>
<rect x="52.0" y="320" width="386.5" height="128" rx="14" fill="#f7fbfd" stroke="#d7e0e7"/>
<rect x="87.0" y="340" width="316.5" height="78" rx="12" fill="#ffffff" stroke="#ccd7e0"/>
<rect x="87.0" y="340" width="316.5" height="22" rx="12" fill="#e9eef3" stroke="#e9eef3"/>
<circle cx="102.0" cy="351" r="4" fill="#ff5f57"/><circle cx="115.0" cy="351" r="4" fill="#febc2e"/><circle cx="128.0" cy="351" r="4" fill="#28c840"/>
<rect x="107.0" y="372" width="276.5" height="26" rx="8" fill="#ffffff" stroke="#ccd7e0"/>
<text x="120.0" y="389" class="body">⌕  www.naver.com</text>
<rect x="52.0" y="616" width="386.5" height="54" rx="12" fill="#eef7ff" stroke="#dbe8f6"/>
<text x="64.0" y="636" class="note">브라우저는 먼저 URL 형식과 캐시, HSTS 등의</text>
<text x="64.0" y="651" class="note">정보를 확인합니다.</text>

    <g filter="url(#shadow)">
      <rect x="472.5" y="190" width="418.5" height="500" rx="16" fill="#ffffff" stroke="#b8d7f6" stroke-width="2"/>
      <rect x="472.5" y="190" width="418.5" height="58" rx="16" fill="url(#headGrad)"/>
      <rect x="472.5" y="234" width="418.5" height="14" fill="url(#headGrad)"/>
      <circle cx="500.5" cy="219" r="18" fill="#1769d2"/>
      <text x="500.5" y="225" text-anchor="middle" style="font:900 18px Pretendard, Arial; fill:#fff">2</text>
      <text x="528.5" y="226" class="card-title">DNS 조회 (도메인 → IP)</text>
    </g>
    
<text x="488.5" y="272" class="body">브라우저는 www.naver.com의 IP 주소를</text>
<text x="488.5" y="290" class="body">알아내기 위해 DNS에 질의합니다.</text>
<rect x="488.5" y="320" width="386.5" height="128" rx="14" fill="#f7fbfd" stroke="#d7e0e7"/>

      <g>
        <rect x="516.5" y="350" width="74" height="58" rx="12" fill="#ffffff" stroke="#cfdae4"/>
        <text x="553.5" y="388" text-anchor="middle" style="font-size:30px">💻</text>
        <text x="553.5" y="425" text-anchor="middle" class="label">내 PC</text>
      </g>
    

      <g>
        <rect x="773.0" y="350" width="74" height="58" rx="12" fill="#ffffff" stroke="#cfdae4"/>
        <text x="810.0" y="388" text-anchor="middle" style="font-size:30px">🗄️</text>
        <text x="810.0" y="425" text-anchor="middle" class="label">DNS 서버</text>
      </g>
    
<text x="681.75" y="382" text-anchor="middle" style="font-size:26px;fill:#1769d2;font-weight:800">⇄</text>
<text x="681.75" y="420" text-anchor="middle" class="small">www.naver.com → IP 주소</text>
<rect x="488.5" y="616" width="386.5" height="54" rx="12" fill="#eef7ff" stroke="#dbe8f6"/>
<text x="500.5" y="636" class="note">캐시가 없다면 로컬 DNS → 루트 → .com →</text>
<text x="500.5" y="651" class="note">권한 DNS 순으로 조회가 진행될 수 있습니다.</text>

    <g filter="url(#shadow)">
      <rect x="909.0" y="190" width="418.5" height="500" rx="16" fill="#ffffff" stroke="#b8d7f6" stroke-width="2"/>
      <rect x="909.0" y="190" width="418.5" height="58" rx="16" fill="url(#headGrad)"/>
      <rect x="909.0" y="234" width="418.5" height="14" fill="url(#headGrad)"/>
      <circle cx="937.0" cy="219" r="18" fill="#1769d2"/>
      <text x="937.0" y="225" text-anchor="middle" style="font:900 18px Pretendard, Arial; fill:#fff">3</text>
      <text x="965.0" y="226" class="card-title">TCP 연결 (3-way handshake)</text>
    </g>
    
<text x="925.0" y="272" class="body">확인한 IP 주소의 서버와 통신하기 위해 TCP</text>
<text x="925.0" y="290" class="body">연결을 수립합니다.</text>
<rect x="925.0" y="320" width="386.5" height="128" rx="14" fill="#f7fbfd" stroke="#d7e0e7"/>
<text x="945.0" y="345" class="small">클라이언트</text>
<text x="1291.5" y="345" text-anchor="end" class="small">서버</text>
<line x1="1020.0" y1="341" x2="1216.5" y2="341" stroke="#1769d2" stroke-width="2.5"/>
<polygon points="1216.5,341 1207.5,336 1207.5,346" fill="#1769d2"/>
<text x="1118.25" y="336" text-anchor="middle" class="small">SYN</text>
<text x="945.0" y="373" class="small">클라이언트</text>
<text x="1291.5" y="373" text-anchor="end" class="small">서버</text>
<line x1="1216.5" y1="369" x2="1020.0" y2="369" stroke="#1769d2" stroke-width="2.5"/>
<polygon points="1020.0,369 1029.0,364 1029.0,374" fill="#1769d2"/>
<text x="1118.25" y="364" text-anchor="middle" class="small">SYN + ACK</text>
<text x="945.0" y="401" class="small">클라이언트</text>
<text x="1291.5" y="401" text-anchor="end" class="small">서버</text>
<line x1="1020.0" y1="397" x2="1216.5" y2="397" stroke="#1769d2" stroke-width="2.5"/>
<polygon points="1216.5,397 1207.5,392 1207.5,402" fill="#1769d2"/>
<text x="1118.25" y="392" text-anchor="middle" class="small">ACK</text>
<rect x="925.0" y="616" width="386.5" height="54" rx="12" fill="#eef7ff" stroke="#dbe8f6"/>
<text x="937.0" y="636" class="note">SYN → SYN+ACK → ACK 과정을 통해</text>
<text x="937.0" y="651" class="note">연결을 설정합니다.</text>

    <g filter="url(#shadow)">
      <rect x="1345.5" y="190" width="418.5" height="500" rx="16" fill="#ffffff" stroke="#b8d7f6" stroke-width="2"/>
      <rect x="1345.5" y="190" width="418.5" height="58" rx="16" fill="url(#headGrad)"/>
      <rect x="1345.5" y="234" width="418.5" height="14" fill="url(#headGrad)"/>
      <circle cx="1373.5" cy="219" r="18" fill="#1769d2"/>
      <text x="1373.5" y="225" text-anchor="middle" style="font:900 18px Pretendard, Arial; fill:#fff">4</text>
      <text x="1401.5" y="226" class="card-title">TLS 핸드셰이크 (HTTPS)</text>
    </g>
    
<text x="1361.5" y="272" class="body">HTTPS를 사용하므로 TCP 연결 후 TLS</text>
<text x="1361.5" y="290" class="body">핸드셰이크를 수행해 암호화 통신을 설정합니다.</text>
<rect x="1361.5" y="320" width="386.5" height="128" rx="14" fill="#f7fbfd" stroke="#d7e0e7"/>

      <g>
        <rect x="1371.5" y="352" width="74" height="58" rx="12" fill="#ffffff" stroke="#cfdae4"/>
        <text x="1408.5" y="390" text-anchor="middle" style="font-size:30px">💻</text>
        <text x="1408.5" y="427" text-anchor="middle" class="label">브라우저</text>
      </g>
    

      <g>
        <rect x="1664.0" y="352" width="74" height="58" rx="12" fill="#ffffff" stroke="#cfdae4"/>
        <text x="1701.0" y="390" text-anchor="middle" style="font-size:30px">🗄️</text>
        <text x="1701.0" y="427" text-anchor="middle" class="label">서버</text>
      </g>
    
<circle cx="1554.75" cy="378" r="24" fill="#e9fbef" stroke="#aee9c4"/>
<text x="1554.75" y="386" text-anchor="middle" style="font-size:26px">🔒</text>
<text x="1554.75" y="422" text-anchor="middle" class="small">ClientHello / ServerHello / 인증서 검증</text>
<rect x="1361.5" y="616" width="386.5" height="54" rx="12" fill="#eef7ff" stroke="#dbe8f6"/>
<text x="1373.5" y="636" class="note">서버 인증서 검증, 키 합의 후 암호화된 통신을</text>
<text x="1373.5" y="651" class="note">시작합니다.</text>

    <g filter="url(#shadow)">
      <rect x="36.0" y="708" width="418.5" height="500" rx="16" fill="#ffffff" stroke="#b8d7f6" stroke-width="2"/>
      <rect x="36.0" y="708" width="418.5" height="58" rx="16" fill="url(#headGrad)"/>
      <rect x="36.0" y="752" width="418.5" height="14" fill="url(#headGrad)"/>
      <circle cx="64.0" cy="737" r="18" fill="#1769d2"/>
      <text x="64.0" y="743" text-anchor="middle" style="font:900 18px Pretendard, Arial; fill:#fff">5</text>
      <text x="92.0" y="744" class="card-title">HTTP 요청 전송</text>
    </g>
    
<text x="52.0" y="790" class="body">TLS 연결이 완료되면 브라우저는 HTTP 요청을</text>
<text x="52.0" y="808" class="body">서버로 보냅니다.</text>
<rect x="52.0" y="838" width="386.5" height="128" rx="14" fill="#f7fbfd" stroke="#d7e0e7"/>
<rect x="76.0" y="862" width="338.5" height="76" rx="10" fill="#eff6fb" stroke="#d6e5f2"/>
<text x="90.0" y="882" class="mono">GET / HTTP/1.1</text>
<text x="90.0" y="898" class="mono">Host: www.naver.com</text>
<text x="90.0" y="914" class="mono">User-Agent: ...</text>
<text x="90.0" y="930" class="mono">Accept: ...</text>
<rect x="52.0" y="1134" width="386.5" height="54" rx="12" fill="#eef7ff" stroke="#dbe8f6"/>
<text x="64.0" y="1154" class="note">예: GET / HTTP/1.1, Host:</text>
<text x="64.0" y="1169" class="note">www.naver.com</text>

    <g filter="url(#shadow)">
      <rect x="472.5" y="708" width="418.5" height="500" rx="16" fill="#ffffff" stroke="#b8d7f6" stroke-width="2"/>
      <rect x="472.5" y="708" width="418.5" height="58" rx="16" fill="url(#headGrad)"/>
      <rect x="472.5" y="752" width="418.5" height="14" fill="url(#headGrad)"/>
      <circle cx="500.5" cy="737" r="18" fill="#1769d2"/>
      <text x="500.5" y="743" text-anchor="middle" style="font:900 18px Pretendard, Arial; fill:#fff">6</text>
      <text x="528.5" y="744" class="card-title">서버 요청 처리 (백엔드)</text>
    </g>
    
<text x="488.5" y="790" class="body">로드 밸런서 또는 프론트 서버가 요청을 애플리케이션</text>
<text x="488.5" y="808" class="body">서버로 전달하고, 서버가 비즈니스 로직을</text>
<text x="488.5" y="826" class="body">수행합니다.</text>
<rect x="488.5" y="838" width="386.5" height="128" rx="14" fill="#f7fbfd" stroke="#d7e0e7"/>
<rect x="506.5" y="856" width="350.5" height="92" rx="12" fill="#fbfffc" stroke="#95e5af" stroke-width="1.5"/>
<text x="518.5" y="876" class="small">네이버 데이터센터 (예시 구조)</text>
<text x="847.0" y="878" text-anchor="end" style="font:900 24px Pretendard, Arial; fill:#03c75a">NAVER</text>
<rect x="512.5" y="890" width="108.83333333333333" height="46" rx="10" fill="#f2fbf5" stroke="#cfe0d4"/>
<text x="566.9166666666666" y="908" text-anchor="middle" style="font-size:18px">⚖️</text>
<text x="566.9166666666666" y="925" text-anchor="middle" class="small">로드 밸런서</text>
<rect x="627.3333333333334" y="890" width="108.83333333333333" height="46" rx="10" fill="#f2fbf5" stroke="#cfe0d4"/>
<text x="681.75" y="908" text-anchor="middle" style="font-size:18px">🖥️</text>
<text x="681.75" y="925" text-anchor="middle" class="small">웹/앱 서버</text>
<rect x="742.1666666666666" y="890" width="108.83333333333333" height="46" rx="10" fill="#f2fbf5" stroke="#cfe0d4"/>
<text x="796.5833333333333" y="908" text-anchor="middle" style="font-size:18px">🛢️</text>
<text x="796.5833333333333" y="925" text-anchor="middle" class="small">DB / Cache</text>
<rect x="488.5" y="1134" width="386.5" height="54" rx="12" fill="#eef7ff" stroke="#dbe8f6"/>
<text x="500.5" y="1154" class="note">웹 서버, WAS, 캐시, DB 등이 함께 동작할 수</text>
<text x="500.5" y="1169" class="note">있습니다.</text>

    <g filter="url(#shadow)">
      <rect x="909.0" y="708" width="418.5" height="500" rx="16" fill="#ffffff" stroke="#b8d7f6" stroke-width="2"/>
      <rect x="909.0" y="708" width="418.5" height="58" rx="16" fill="url(#headGrad)"/>
      <rect x="909.0" y="752" width="418.5" height="14" fill="url(#headGrad)"/>
      <circle cx="937.0" cy="737" r="18" fill="#1769d2"/>
      <text x="937.0" y="743" text-anchor="middle" style="font:900 18px Pretendard, Arial; fill:#fff">7</text>
      <text x="965.0" y="744" class="card-title">HTTP 응답 전송</text>
    </g>
    
<text x="925.0" y="790" class="body">서버는 처리 결과를 HTTP 응답으로 반환합니다.</text>
<rect x="925.0" y="838" width="386.5" height="128" rx="14" fill="#f7fbfd" stroke="#d7e0e7"/>
<rect x="949.0" y="862" width="338.5" height="76" rx="10" fill="#eff6fb" stroke="#d6e5f2"/>
<text x="963.0" y="882" class="mono">HTTP/1.1 200 OK</text>
<text x="963.0" y="898" class="mono">Content-Type: text/html</text>
<text x="963.0" y="914" class="mono"></text>
<text x="963.0" y="930" class="mono">&lt;html&gt;...&lt;/html&gt;</text>
<rect x="925.0" y="1134" width="386.5" height="54" rx="12" fill="#eef7ff" stroke="#dbe8f6"/>
<text x="937.0" y="1154" class="note">HTML, JSON, 이미지, CSS, JS 등</text>
<text x="937.0" y="1169" class="note">다양한 리소스가 응답될 수 있습니다.</text>

    <g filter="url(#shadow)">
      <rect x="1345.5" y="708" width="418.5" height="500" rx="16" fill="#ffffff" stroke="#b8d7f6" stroke-width="2"/>
      <rect x="1345.5" y="708" width="418.5" height="58" rx="16" fill="url(#headGrad)"/>
      <rect x="1345.5" y="752" width="418.5" height="14" fill="url(#headGrad)"/>
      <circle cx="1373.5" cy="737" r="18" fill="#1769d2"/>
      <text x="1373.5" y="743" text-anchor="middle" style="font:900 18px Pretendard, Arial; fill:#fff">8</text>
      <text x="1401.5" y="744" class="card-title">데이터 수신 및 복호화</text>
    </g>
    
<text x="1361.5" y="790" class="body">브라우저는 응답 데이터를 수신하고 TLS 계층에서</text>
<text x="1361.5" y="808" class="body">복호화하여 원본 데이터를 얻습니다.</text>
<rect x="1361.5" y="838" width="386.5" height="128" rx="14" fill="#f7fbfd" stroke="#d7e0e7"/>

      <g>
        <rect x="1379.5" y="868" width="74" height="58" rx="12" fill="#ffffff" stroke="#cfdae4"/>
        <text x="1416.5" y="906" text-anchor="middle" style="font-size:30px">🗄️</text>
        <text x="1416.5" y="943" text-anchor="middle" class="label">서버</text>
      </g>
    
<circle cx="1554.75" cy="896" r="24" fill="#e9fbef" stroke="#aee9c4"/>
<text x="1554.75" y="904" text-anchor="middle" style="font-size:26px">🔒</text>

      <g>
        <rect x="1656.0" y="868" width="74" height="58" rx="12" fill="#ffffff" stroke="#cfdae4"/>
        <text x="1693.0" y="906" text-anchor="middle" style="font-size:30px">💻</text>
        <text x="1693.0" y="943" text-anchor="middle" class="label">브라우저</text>
      </g>
    
<text x="1554.75" y="942" text-anchor="middle" class="small">암호화된 데이터 → 복호화</text>
<rect x="1361.5" y="1134" width="386.5" height="54" rx="12" fill="#eef7ff" stroke="#dbe8f6"/>
<text x="1373.5" y="1154" class="note">네트워크에는 암호화된 상태로 흐르고, 브라우저에서</text>
<text x="1373.5" y="1169" class="note">복호화됩니다.</text>

    <g filter="url(#shadow)">
      <rect x="36.0" y="1226" width="418.5" height="500" rx="16" fill="#ffffff" stroke="#b8d7f6" stroke-width="2"/>
      <rect x="36.0" y="1226" width="418.5" height="58" rx="16" fill="url(#headGrad)"/>
      <rect x="36.0" y="1270" width="418.5" height="14" fill="url(#headGrad)"/>
      <circle cx="64.0" cy="1255" r="18" fill="#1769d2"/>
      <text x="64.0" y="1261" text-anchor="middle" style="font:900 18px Pretendard, Arial; fill:#fff">9</text>
      <text x="92.0" y="1262" class="card-title">브라우저 렌더링 과정</text>
    </g>
    
<text x="52.0" y="1308" class="body">브라우저는 HTML을 파싱하고, 추가로 필요한</text>
<text x="52.0" y="1326" class="body">CSS·JavaScript·이미지·폰트를</text>
<text x="52.0" y="1344" class="body">요청합니다.</text>
<rect x="52.0" y="1356" width="386.5" height="128" rx="14" fill="#f7fbfd" stroke="#d7e0e7"/>
<rect x="68.0" y="1374" width="354.5" height="92" rx="10" fill="#eff6fb" stroke="#dae8f3"/>
<text x="80.0" y="1394" class="mono">/static/main.css</text>
<text x="80.0" y="1410" class="mono">/static/main.js</text>
<text x="80.0" y="1426" class="mono">/static/logo.png</text>
<text x="80.0" y="1442" class="mono">/static/font.woff2</text>
<text x="378.5" y="1402" text-anchor="middle" style="font-size:24px">CSS</text>
<text x="378.5" y="1428" text-anchor="middle" style="font-size:24px">JS</text>
<text x="378.5" y="1454" text-anchor="middle" style="font-size:22px">🖼️</text>
<rect x="52.0" y="1652" width="386.5" height="54" rx="12" fill="#eef7ff" stroke="#dbe8f6"/>
<text x="64.0" y="1672" class="note">HTML → DOM, CSS → CSSOM →</text>
<text x="64.0" y="1687" class="note">Render Tree → Layout → Paint</text>

    <g filter="url(#shadow)">
      <rect x="472.5" y="1226" width="418.5" height="500" rx="16" fill="#ffffff" stroke="#b8d7f6" stroke-width="2"/>
      <rect x="472.5" y="1226" width="418.5" height="58" rx="16" fill="url(#headGrad)"/>
      <rect x="472.5" y="1270" width="418.5" height="14" fill="url(#headGrad)"/>
      <circle cx="500.5" cy="1255" r="18" fill="#1769d2"/>
      <text x="500.5" y="1261" text-anchor="middle" style="font:900 18px Pretendard, Arial; fill:#fff">10</text>
      <text x="528.5" y="1262" class="card-title">웹 페이지 화면 표시</text>
    </g>
    
<text x="488.5" y="1308" class="body">리소스 해석과 레이아웃 계산이 끝나면 사용자 화면에</text>
<text x="488.5" y="1326" class="body">네이버 페이지가 표시됩니다.</text>
<rect x="488.5" y="1356" width="386.5" height="128" rx="14" fill="#f7fbfd" stroke="#d7e0e7"/>
<rect x="526.5" y="1370" width="310.5" height="100" rx="12" fill="#ffffff" stroke="#ccd7df"/>
<rect x="526.5" y="1370" width="310.5" height="22" rx="12" fill="#e9eef3" stroke="#e9eef3"/>
<circle cx="540.5" cy="1381" r="4" fill="#ff5f57"/><circle cx="553.5" cy="1381" r="4" fill="#febc2e"/><circle cx="566.5" cy="1381" r="4" fill="#28c840"/>
<text x="681.75" y="1412" text-anchor="middle" style="font:900 24px Pretendard, Arial; fill:#03c75a">NAVER</text>
<rect x="568.5" y="1426" width="226.5" height="18" rx="9" fill="none" stroke="#03c75a" stroke-width="2"/>
<text x="681.75" y="1464" text-anchor="middle" class="small">뉴스 · 쇼핑 · 블로그 · 카페 · 지식iN</text>
<rect x="488.5" y="1652" width="386.5" height="54" rx="12" fill="#eef7ff" stroke="#dbe8f6"/>
<text x="500.5" y="1672" class="note">사용자가 실제로 보는 결과 화면입니다.</text>

    <g filter="url(#shadow)">
      <rect x="909.0" y="1226" width="418.5" height="500" rx="16" fill="#ffffff" stroke="#b8d7f6" stroke-width="2"/>
      <rect x="909.0" y="1226" width="418.5" height="58" rx="16" fill="url(#headGrad)"/>
      <rect x="909.0" y="1270" width="418.5" height="14" fill="url(#headGrad)"/>
      <circle cx="937.0" cy="1255" r="18" fill="#1769d2"/>
      <text x="937.0" y="1261" text-anchor="middle" style="font:900 18px Pretendard, Arial; fill:#fff">11</text>
      <text x="965.0" y="1262" class="card-title">이후 동작들 (지속적 통신)</text>
    </g>
    
<text x="925.0" y="1308" class="body">검색, 클릭, 로그인, API 호출 등에 따라 추가</text>
<text x="925.0" y="1326" class="body">HTTP 요청과 응답이 반복됩니다.</text>
<rect x="925.0" y="1356" width="386.5" height="128" rx="14" fill="#f7fbfd" stroke="#d7e0e7"/>

      <g>
        <rect x="951.0" y="1386" width="74" height="58" rx="12" fill="#ffffff" stroke="#cfdae4"/>
        <text x="988.0" y="1424" text-anchor="middle" style="font-size:30px">💻</text>
        <text x="988.0" y="1461" text-anchor="middle" class="label">브라우저</text>
      </g>
    

      <g>
        <rect x="1211.5" y="1386" width="74" height="58" rx="12" fill="#ffffff" stroke="#cfdae4"/>
        <text x="1248.5" y="1424" text-anchor="middle" style="font-size:30px">🗄️</text>
        <text x="1248.5" y="1461" text-anchor="middle" class="label">서버</text>
      </g>
    
<text x="1118.25" y="1416" text-anchor="middle" style="font-size:28px;fill:#1769d2;font-weight:800">⇄</text>
<text x="1118.25" y="1458" text-anchor="middle" class="small">검색 · 클릭 · API 요청 · 데이터 갱신</text>
<rect x="925.0" y="1652" width="386.5" height="54" rx="12" fill="#eef7ff" stroke="#dbe8f6"/>
<text x="937.0" y="1672" class="note">Keep-Alive, HTTP/2 멀티플렉싱,</text>
<text x="937.0" y="1687" class="note">HTTP/3(QUIC) 등을 사용할 수 있습니다.</text>

    <g filter="url(#shadow)">
      <rect x="1345.5" y="1226" width="418.5" height="500" rx="16" fill="#ffffff" stroke="#b8d7f6" stroke-width="2"/>
      <rect x="1345.5" y="1226" width="418.5" height="58" rx="16" fill="url(#headGrad)"/>
      <rect x="1345.5" y="1270" width="418.5" height="14" fill="url(#headGrad)"/>
      <circle cx="1373.5" cy="1255" r="18" fill="#1769d2"/>
      <text x="1373.5" y="1261" text-anchor="middle" style="font:900 18px Pretendard, Arial; fill:#fff">12</text>
      <text x="1401.5" y="1262" class="card-title">연결 종료 (또는 유지)</text>
    </g>
    
<text x="1361.5" y="1308" class="body">통신이 끝나면 연결을 종료하거나, 다음 요청을 위해</text>
<text x="1361.5" y="1326" class="body">일정 시간 유지할 수 있습니다.</text>
<rect x="1361.5" y="1356" width="386.5" height="128" rx="14" fill="#f7fbfd" stroke="#d7e0e7"/>
<text x="1381.5" y="1374" class="small">클라이언트</text>
<text x="1728.0" y="1374" text-anchor="end" class="small">서버</text>
<line x1="1456.5" y1="1370" x2="1653.0" y2="1370" stroke="#1769d2" stroke-width="2.2"/>
<polygon points="1653.0,1370 1644.0,1365 1644.0,1375" fill="#1769d2"/>
<text x="1554.75" y="1365" text-anchor="middle" class="small">FIN</text>
<text x="1381.5" y="1396" class="small">클라이언트</text>
<text x="1728.0" y="1396" text-anchor="end" class="small">서버</text>
<line x1="1653.0" y1="1392" x2="1456.5" y2="1392" stroke="#1769d2" stroke-width="2.2"/>
<polygon points="1456.5,1392 1465.5,1387 1465.5,1397" fill="#1769d2"/>
<text x="1554.75" y="1387" text-anchor="middle" class="small">ACK</text>
<text x="1381.5" y="1418" class="small">클라이언트</text>
<text x="1728.0" y="1418" text-anchor="end" class="small">서버</text>
<line x1="1653.0" y1="1414" x2="1456.5" y2="1414" stroke="#1769d2" stroke-width="2.2"/>
<polygon points="1456.5,1414 1465.5,1409 1465.5,1419" fill="#1769d2"/>
<text x="1554.75" y="1409" text-anchor="middle" class="small">FIN</text>
<text x="1381.5" y="1440" class="small">클라이언트</text>
<text x="1728.0" y="1440" text-anchor="end" class="small">서버</text>
<line x1="1456.5" y1="1436" x2="1653.0" y2="1436" stroke="#1769d2" stroke-width="2.2"/>
<polygon points="1653.0,1436 1644.0,1431 1644.0,1441" fill="#1769d2"/>
<text x="1554.75" y="1431" text-anchor="middle" class="small">ACK</text>
<rect x="1361.5" y="1652" width="386.5" height="54" rx="12" fill="#eef7ff" stroke="#dbe8f6"/>
<text x="1373.5" y="1672" class="note">HTTP/1.1은 Keep-Alive로 연결을</text>
<text x="1373.5" y="1687" class="note">재사용할 수 있습니다.</text>

  <g filter="url(#shadow)">
    <rect x="36" y="1754" width="210" height="120" rx="16" fill="#143b5b"/>
    <rect x="242" y="1754" width="1522" height="120" rx="16" fill="#dffbe7" stroke="#67d78d" stroke-width="2"/>
    <text x="141" y="1820" text-anchor="middle" class="summaryTitle">한 줄 요약</text>
    <text x="272" y="1802" class="summaryBody">브라우저에 www.naver.com을 입력하면, DNS로 IP를 찾고 → TCP/TLS로 연결한 뒤</text>
    <text x="272" y="1836" class="summaryBody">→ HTTP 요청을 보내고 → 서버가 처리한 응답을 받아 → 브라우저가 렌더링하여 화면에 표시합니다.</text>
  </g>

  <text x="1764" y="2382" text-anchor="end" style="font:600 12px Pretendard, Arial; fill:#8b98a3">
    BACKEND DEVELOPER INTERVIEW STUDY · SVG INFOGRAPHIC
  </text>

</svg>